Coordinates
version=1
nRows=19
nColumns=33
inDegrees=yes

Units are S.I. units (second, meters, Newtons, ...)
Angles are in degrees.

endheader
time	ground_thorax_rot_x	ground_thorax_rot_y	ground_thorax_rot_z	ground_thorax_tx	ground_thorax_ty	ground_thorax_tz	clav_prot_r	clav_elev_r	scapula_abduction_r	scapula_elevation_r	scapula_upward_rot_r	scapula_winging_r	shoulder_elv_r	plane_of_elev_r	axial_rot_r	elbow_flexion_r	pro_sup_r	wrist_flex_r	wrist_dev_r	clav_prot_l	clav_elev_l	scapula_abduction_l	scapula_elevation_l	scapula_upward_rot_l	scapula_winging_l	shoulder_elv_l	plane_of_elev_l	axial_rot_l	elbow_flexion_l	pro_sup_l	wrist_flex_l	wrist_dev_l	
1.5100	36.973542	7.658611	12.282701	-233.316540	823.936694	2.291937	15.919665	38.302714	39.623942	45.000000	-45.000000	2072.845397	-1908.655695	147.581756	-125.219149	1824.639865	142.436395	13.336822	3.746290	11.296649	-45.000000	-39.451969	45.000000	-45.000000	-2062.164251	-269.428027	17.309062	-180.000000	1784.341054	-31.308042	-4.787544	-13.639396	
1.5200	36.980349	7.716632	12.416280	-232.890549	823.105740	2.149820	15.926587	38.241417	39.548053	45.000000	-45.000000	2072.953582	-1908.718397	147.612291	-125.097643	1824.717814	142.504224	13.362521	3.822770	11.362686	-45.000000	-39.424106	45.000000	-45.000000	-2062.264309	-269.500431	17.272901	-180.000000	1784.325368	-30.794240	-4.714140	-13.471700	
1.5300	37.000038	7.757677	12.523879	-232.442179	822.280923	2.014024	15.926142	38.171231	39.477042	45.000000	-45.000000	2073.059495	-1908.773826	147.629920	-124.983329	1824.786811	142.609941	13.406884	3.894814	11.432649	-45.000000	-39.405422	45.000000	-45.000000	-2062.371120	-269.580326	17.234564	-180.000000	1784.302617	-30.307321	-4.634900	-13.287933	
1.5400	37.021922	7.805428	12.625388	-231.928100	821.466065	1.889525	15.922899	38.130435	39.405844	45.000000	-45.000000	2073.167173	-1908.826256	147.636069	-124.927869	1824.833559	142.809080	13.413218	3.979096	11.479121	-45.000000	-39.389474	45.000000	-45.000000	-2062.464143	-269.650127	17.211357	-180.000000	1784.279099	-29.889393	-4.568852	-13.151870	
1.5500	37.051630	7.852982	12.712933	-231.367216	820.670433	1.779440	15.912070	38.106157	39.336370	45.000000	-45.000000	2073.271073	-1908.869283	147.630430	-124.923383	1824.866872	143.097438	13.403214	4.069650	11.514815	-45.000000	-39.377879	45.000000	-45.000000	-2062.549406	-269.714086	17.195894	-180.000000	1784.254848	-29.530505	-4.508189	-13.040621	
1.5600	37.090829	7.887060	12.772421	-230.772860	819.905899	1.687221	15.899717	38.093335	39.283352	45.000000	-44.999999	2073.365831	-1908.905364	147.611792	-124.964911	1824.886991	143.474689	13.383134	4.162129	11.537563	-45.000000	-39.368969	45.000000	-45.000000	-2062.629685	-269.772480	17.190590	-180.000000	1784.223769	-29.225157	-4.453039	-12.950168	
1.5700	37.138965	7.909812	12.810626	-230.171969	819.187734	1.615283	15.893586	38.095243	39.252776	45.000000	-44.999999	2073.442506	-1908.936803	147.588103	-125.047195	1824.902292	143.924910	13.357687	4.255500	11.548793	-45.000000	-39.354729	45.000000	-45.000000	-2062.707285	-269.823805	17.189558	-180.000000	1784.191150	-28.947728	-4.399800	-12.873469	
1.5800	37.195571	7.904460	12.811039	-229.591104	818.532453	1.564936	15.896693	38.097753	39.253853	45.000000	-44.999998	2073.499601	-1908.964635	147.557592	-125.153968	1824.915767	144.424266	13.336816	4.342535	11.551362	-45.000000	-39.339400	45.000000	-45.000000	-2062.784253	-269.870028	17.195444	-180.000000	1784.148021	-28.663246	-4.349099	-12.800251	
1.5900	37.251845	7.888240	12.794612	-229.045702	817.956550	1.536349	15.910333	38.112575	39.274664	45.000000	-44.999996	2073.536618	-1908.987927	147.526881	-125.291130	1824.931309	144.955647	13.312497	4.426119	11.547410	-45.000000	-39.320929	45.000000	-45.000000	-2062.859055	-269.904391	17.202386	-180.000000	1784.104057	-28.324936	-4.298860	-12.733509	
1.6000	37.307761	7.844602	12.742313	-228.538344	817.474212	1.528364	15.928528	38.123335	39.318190	45.000000	-44.999993	2073.558933	-1909.005783	147.490970	-125.453068	1824.946606	145.506233	13.286955	4.500187	11.543160	-45.000000	-39.311554	45.000000	-45.000000	-2062.929401	-269.930349	17.218620	-180.000000	1784.049478	-27.873604	-4.251776	-12.669978	
1.6100	37.355252	7.799609	12.680215	-228.060100	817.096443	1.538276	15.942574	38.140986	39.355413	45.000000	-44.999987	2073.574592	-1909.008135	147.453222	-125.654114	1824.965526	146.076146	13.253230	4.567615	11.545742	-45.000000	-39.316154	45.000000	-44.999999	-2062.994397	-269.942137	17.234931	-180.000000	1783.998753	-27.222229	-4.200348	-12.609830	
1.6200	37.393770	7.745297	12.596358	-227.592916	816.829357	1.561784	15.938097	38.144296	39.379392	45.000000	-44.999977	2073.592785	-1908.989210	147.406238	-125.895310	1824.986854	146.674033	13.211786	4.624793	11.565682	-45.000000	-39.351469	45.000000	-44.999999	-2063.049350	-269.944849	17.259292	-180.000000	1783.950547	-26.238566	-4.141277	-12.553227	
1.6300	37.419124	7.699443	12.517072	-227.113250	816.673693	1.593110	15.909796	38.147100	39.387811	45.000000	-44.999959	2073.616090	-1908.947417	147.359972	-126.184933	1825.011392	147.321956	13.160043	4.673676	11.606942	-45.000000	-39.409078	45.000000	-44.999997	-2063.097120	-269.936044	17.282783	-180.000000	1783.929176	-24.728874	-4.056051	-12.502306	
1.6400	37.438633	7.644495	12.430057	-226.595421	816.624217	1.625633	15.865893	38.137908	39.405419	45.000000	-44.999927	2073.639149	-1908.892499	147.313361	-126.500128	1825.033958	148.061110	13.101023	4.712541	11.663427	-45.000000	-39.484289	45.000000	-44.999995	-2063.137843	-269.925697	17.314432	-180.000000	1783.955449	-22.302729	-3.919197	-12.466356	
1.6500	37.453469	7.588623	12.358008	-226.013967	816.670539	1.652703	15.820733	38.134589	39.444390	45.000000	-44.999869	2073.651679	-1908.833689	147.270745	-126.819125	1825.058597	148.940195	13.034930	4.743667	11.721980	-45.000000	-39.547741	45.000000	-44.999991	-2063.176049	-269.913564	17.349175	-180.000000	1784.068985	-18.487678	-3.690149	-12.455780	
1.6600	37.466030	7.533393	12.309318	-225.345763	816.798221	1.668741	15.782832	38.128178	39.511498	45.000000	-44.999765	2073.645297	-1908.783088	147.228444	-127.065104	1825.081793	150.111494	12.962585	4.772863	11.761726	-45.000000	-39.585749	45.000000	-44.999985	-2063.205545	-269.907762	17.397407	-180.000000	1784.378139	-11.870283	-3.264179	-12.518028	
1.6700	37.478209	7.491822	12.306658	-224.570364	816.990762	1.669920	15.762689	38.131285	39.610538	45.000000	-44.999579	2073.611743	-1908.747949	147.189194	-127.196638	1825.103599	151.630645	12.885760	4.804540	11.773245	-45.000000	-39.578147	45.000000	-44.999972	-2063.226541	-269.910615	17.457399	-180.000000	1784.955856	-1.633559	-2.571247	-12.680183	
1.6800	37.482191	7.537283	12.443106	-223.670844	817.231141	1.654711	15.746410	38.144226	39.717308	45.000000	-44.999247	2073.541501	-1908.743052	147.183734	-126.927064	1825.114721	154.196868	12.795606	4.862335	11.715682	-45.000000	-39.477139	45.000000	-44.999951	-2063.207223	-269.947536	17.540942	-180.000000	1786.306618	18.400875	-1.136349	-13.162649	
1.6900	37.479560	7.663002	12.701723	-222.632846	817.503524	1.623920	15.748384	38.158811	39.826342	45.000000	-44.998650	2073.440103	-1908.761569	147.197579	-126.361404	1825.120150	157.361018	12.700154	4.941718	11.617548	-45.000000	-39.305763	45.000000	-44.999911	-2063.153013	-270.008359	17.644745	-180.000000	1788.263483	46.014062	0.890986	-13.899116	
